<svg width="122" height="25" viewBox="0 0 122 25" fill="none" xmlns="http://www.w3.org/2000/svg">
<path d="M12.376 24.384C10.648 24.384 9.03733 24.1067 7.544 23.552C6.072 22.976 4.792 22.1653 3.704 21.12C2.616 20.0747 1.76267 18.848 1.144 17.44C0.546667 16.032 0.248 14.4853 0.248 12.8C0.248 11.1147 0.546667 9.568 1.144 8.16C1.76267 6.752 2.616 5.52533 3.704 4.48C4.81333 3.43467 6.104 2.63467 7.576 2.08C9.048 1.504 10.6587 1.216 12.408 1.216C14.3493 1.216 16.0987 1.55733 17.656 2.24C19.2347 2.90133 20.5573 3.88267 21.624 5.184L18.296 8.256C17.528 7.38133 16.6747 6.73067 15.736 6.304C14.7973 5.856 13.7733 5.632 12.664 5.632C11.6187 5.632 10.6587 5.80267 9.784 6.144C8.90933 6.48533 8.152 6.976 7.512 7.616C6.872 8.256 6.37067 9.01333 6.008 9.888C5.66667 10.7627 5.496 11.7333 5.496 12.8C5.496 13.8667 5.66667 14.8373 6.008 15.712C6.37067 16.5867 6.872 17.344 7.512 17.984C8.152 18.624 8.90933 19.1147 9.784 19.456C10.6587 19.7973 11.6187 19.968 12.664 19.968C13.7733 19.968 14.7973 19.7547 15.736 19.328C16.6747 18.88 17.528 18.208 18.296 17.312L21.624 20.384C20.5573 21.6853 19.2347 22.6773 17.656 23.36C16.0987 24.0427 14.3387 24.384 12.376 24.384ZM32.051 24.256C30.2163 24.256 28.5843 23.872 27.155 23.104C25.747 22.336 24.627 21.2907 23.795 19.968C22.9843 18.624 22.579 17.0987 22.579 15.392C22.579 13.664 22.9843 12.1387 23.795 10.816C24.627 9.472 25.747 8.42667 27.155 7.68C28.5843 6.912 30.2163 6.528 32.051 6.528C33.8643 6.528 35.4857 6.912 36.915 7.68C38.3443 8.42667 39.4643 9.46133 40.275 10.784C41.0857 12.1067 41.491 13.6427 41.491 15.392C41.491 17.0987 41.0857 18.624 40.275 19.968C39.4643 21.2907 38.3443 22.336 36.915 23.104C35.4857 23.872 33.8643 24.256 32.051 24.256ZM32.051 20.16C32.883 20.16 33.6297 19.968 34.291 19.584C34.9523 19.2 35.475 18.656 35.859 17.952C36.243 17.2267 36.435 16.3733 36.435 15.392C36.435 14.3893 36.243 13.536 35.859 12.832C35.475 12.128 34.9523 11.584 34.291 11.2C33.6297 10.816 32.883 10.624 32.051 10.624C31.219 10.624 30.4723 10.816 29.811 11.2C29.1497 11.584 28.6163 12.128 28.211 12.832C27.827 13.536 27.635 14.3893 27.635 15.392C27.635 16.3733 27.827 17.2267 28.211 17.952C28.6163 18.656 29.1497 19.2 29.811 19.584C30.4723 19.968 31.219 20.16 32.051 20.16ZM52.6998 24.256C50.8651 24.256 49.2331 23.872 47.8038 23.104C46.3958 22.336 45.2758 21.2907 44.4438 19.968C43.6331 18.624 43.2278 17.0987 43.2278 15.392C43.2278 13.664 43.6331 12.1387 44.4438 10.816C45.2758 9.472 46.3958 8.42667 47.8038 7.68C49.2331 6.912 50.8651 6.528 52.6998 6.528C54.5131 6.528 56.1344 6.912 57.5638 7.68C58.9931 8.42667 60.1131 9.46133 60.9238 10.784C61.7344 12.1067 62.1398 13.6427 62.1398 15.392C62.1398 17.0987 61.7344 18.624 60.9238 19.968C60.1131 21.2907 58.9931 22.336 57.5638 23.104C56.1344 23.872 54.5131 24.256 52.6998 24.256ZM52.6998 20.16C53.5318 20.16 54.2784 19.968 54.9398 19.584C55.6011 19.2 56.1238 18.656 56.5078 17.952C56.8918 17.2267 57.0838 16.3733 57.0838 15.392C57.0838 14.3893 56.8918 13.536 56.5078 12.832C56.1238 12.128 55.6011 11.584 54.9398 11.2C54.2784 10.816 53.5318 10.624 52.6998 10.624C51.8678 10.624 51.1211 10.816 50.4598 11.2C49.7984 11.584 49.2651 12.128 48.8598 12.832C48.4758 13.536 48.2838 14.3893 48.2838 15.392C48.2838 16.3733 48.4758 17.2267 48.8598 17.952C49.2651 18.656 49.7984 19.2 50.4598 19.584C51.1211 19.968 51.8678 20.16 52.6998 20.16ZM72.1965 24.256C70.1698 24.256 68.5912 23.744 67.4605 22.72C66.3298 21.6747 65.7645 20.128 65.7645 18.08V2.976H70.7565V18.016C70.7565 18.7413 70.9485 19.3067 71.3325 19.712C71.7165 20.096 72.2392 20.288 72.9005 20.288C73.6898 20.288 74.3618 20.0747 74.9165 19.648L76.2605 23.168C75.7485 23.5307 75.1298 23.808 74.4045 24C73.7005 24.1707 72.9645 24.256 72.1965 24.256ZM63.1085 11.008V7.168H75.0445V11.008H63.1085ZM86.7555 24.256C84.7928 24.256 83.0648 23.872 81.5715 23.104C80.0995 22.336 78.9582 21.2907 78.1475 19.968C77.3368 18.624 76.9315 17.0987 76.9315 15.392C76.9315 13.664 77.3262 12.1387 78.1155 10.816C78.9262 9.472 80.0248 8.42667 81.4115 7.68C82.7982 6.912 84.3662 6.528 86.1155 6.528C87.8008 6.528 89.3155 6.89067 90.6595 7.616C92.0248 8.32 93.1022 9.344 93.8915 10.688C94.6808 12.0107 95.0755 13.6 95.0755 15.456C95.0755 15.648 95.0648 15.872 95.0435 16.128C95.0222 16.3627 95.0008 16.5867 94.9795 16.8H80.9955V13.888H92.3555L90.4355 14.752C90.4355 13.856 90.2542 13.0773 89.8915 12.416C89.5288 11.7547 89.0275 11.2427 88.3875 10.88C87.7475 10.496 87.0008 10.304 86.1475 10.304C85.2942 10.304 84.5368 10.496 83.8755 10.88C83.2355 11.2427 82.7342 11.7653 82.3715 12.448C82.0088 13.1093 81.8275 13.8987 81.8275 14.816V15.584C81.8275 16.5227 82.0302 17.3547 82.4355 18.08C82.8622 18.784 83.4488 19.328 84.1955 19.712C84.9635 20.0747 85.8595 20.256 86.8835 20.256C87.8008 20.256 88.6008 20.1173 89.2835 19.84C89.9875 19.5627 90.6275 19.1467 91.2035 18.592L93.8595 21.472C93.0702 22.368 92.0782 23.0613 90.8835 23.552C89.6888 24.0213 88.3128 24.256 86.7555 24.256ZM98.079 24V0.255999H103.071V24H98.079ZM113.176 24.256C111.704 24.256 110.285 24.0853 108.92 23.744C107.576 23.3813 106.509 22.9333 105.72 22.4L107.384 18.816C108.173 19.3067 109.101 19.712 110.168 20.032C111.256 20.3307 112.323 20.48 113.368 20.48C114.52 20.48 115.331 20.3413 115.8 20.064C116.291 19.7867 116.536 19.4027 116.536 18.912C116.536 18.5067 116.344 18.208 115.96 18.016C115.597 17.8027 115.107 17.6427 114.488 17.536C113.869 17.4293 113.187 17.3227 112.44 17.216C111.715 17.1093 110.979 16.9707 110.232 16.8C109.485 16.608 108.803 16.3307 108.184 15.968C107.565 15.6053 107.064 15.1147 106.68 14.496C106.317 13.8773 106.136 13.0773 106.136 12.096C106.136 11.008 106.445 10.048 107.064 9.216C107.704 8.384 108.621 7.73333 109.816 7.264C111.011 6.77333 112.44 6.528 114.104 6.528C115.277 6.528 116.472 6.656 117.688 6.912C118.904 7.168 119.917 7.54133 120.728 8.032L119.064 11.584C118.232 11.0933 117.389 10.7627 116.536 10.592C115.704 10.4 114.893 10.304 114.104 10.304C112.995 10.304 112.184 10.4533 111.672 10.752C111.16 11.0507 110.904 11.4347 110.904 11.904C110.904 12.3307 111.085 12.6507 111.448 12.864C111.832 13.0773 112.333 13.248 112.952 13.376C113.571 13.504 114.243 13.6213 114.968 13.728C115.715 13.8133 116.461 13.952 117.208 14.144C117.955 14.336 118.627 14.6133 119.224 14.976C119.843 15.3173 120.344 15.7973 120.728 16.416C121.112 17.0133 121.304 17.8027 121.304 18.784C121.304 19.8507 120.984 20.8 120.344 21.632C119.704 22.4427 118.776 23.0827 117.56 23.552C116.365 24.0213 114.904 24.256 113.176 24.256Z" fill="white"/>
</svg>
